# xmcd
#
# Track frame offsets:
#	150
#	12930
#	25041
#	36778
#	49720
#	63480
#	74892
#	90448
#	100147
#	113418
#	126152
#	139468
#	148437
#	159535
#	177135
#	186806
#	197745
#	209913
#	221632
#	232508
#	246178
#	260008
#	273559
#	285113
#	296495
#	312207
#	322620
#	335580
#	347836
#	359271
#	369923
#	382828
#
# Disc length: 5239 seconds
# Revision: 3
# Processed by: cddbd v1.5.2PL0 Copyright (c) Steve Scherf et al.
# Submitted via: dBpowerAMP V12.0
#
DISCID=e9147520
DTITLE=Various Artist - The Sun Blues Box 8 - There Is Love In You
DYEAR=2013
DGENRE=Blues
TTITLE0=Prisonaires, The - Just Walking in the Rain
TTITLE1=Prisonaires, The - A Prisoner's Prayer
TTITLE2=Prisonaires, The - Don't Say Tomorrow
TTITLE3=Prisonaires, The - There Is Love in You
TTITLE4=Five Tinos, The - Gonna Have to Let You Be
TTITLE5=Five Tinos, The - Don't Do That
TTITLE6=Five Tinos, The - Sitting by My Window
TTITLE7=Rosco Gordon - New Orleans
TTITLE8=Rosco Gordon - Shoobie Oobie
TTITLE9=Ed Kirby - Mean Old Gin
TTITLE10=Ed Kirby - Blue Nights
TTITLE11=Big Lucky Carter - Gonna Break That Lock
TTITLE12=Hunky Dory - I Want My Baby Back
TTITLE13=Hunky Dory - Baby Don't Leave Me
TTITLE14=Hunky Dory - I Wonder Why
TTITLE15=Hunky Dory - This Misery
TTITLE16=Brewsteraires - Where Shall I Be (When That First Trumpet Sounds)
TTITLE17=Brewsteraires - (The Lord Gave Me) Wings for My Soul
TTITLE18=Southern Jubilees - There's a Man in Jerusalem
TTITLE19=Southern Jubilees - Forgive Me Lord
TTITLE20=Southern Jubilees - He Never Left Me Alone
TTITLE21=Southern Jubilees - Blessed Be the Name
TTITLE22=Prisonaires, The - Softly and Tenderly
TTITLE23=Prisonaires, The - My God Is Real
TTITLE24=Jones Brothers - Amazing Grace
TTITLE25=Jones Brothers - Gospel Train
TTITLE26=Jones Brothers - Look to Jesus
TTITLE27=Jones Brothers - Every Night
TTITLE28=Brother R. Russell and The Jones Brothers Quartet - I'm Sealed
TTITLE29=Jones Brothers Quartet - Every Night
TTITLE30=Hunky Dory - A Lady Called Mother
TTITLE31=Hunky Dory - Workin' on a Building
EXTD=
EXTT0=
EXTT1=
EXTT2=
EXTT3=
EXTT4=
EXTT5=
EXTT6=
EXTT7=
EXTT8=
EXTT9=
EXTT10=
EXTT11=
EXTT12=
EXTT13=
EXTT14=
EXTT15=
EXTT16=
EXTT17=
EXTT18=
EXTT19=
EXTT20=
EXTT21=
EXTT22=
EXTT23=
EXTT24=
EXTT25=
EXTT26=
EXTT27=
EXTT28=
EXTT29=
EXTT30=
EXTT31=
PLAYORDER=
